<?xml version="1.0" encoding="UTF-8" standalone="no"?>
<!DOCTYPE svg PUBLIC "-//W3C//DTD SVG 1.1//EN" "http://www.w3.org/Graphics/SVG/1.1/DTD/svg11.dtd">
<svg width="100%" height="100%" viewBox="0 0 2740 632" version="1.1" xmlns="http://www.w3.org/2000/svg" xmlns:xlink="http://www.w3.org/1999/xlink" xml:space="preserve" xmlns:serif="http://www.serif.com/" style="fill-rule:evenodd;clip-rule:evenodd;stroke-linejoin:round;stroke-miterlimit:2;">
    <g transform="matrix(1,0,0,1,-8321.62,-691.733)">
        <g transform="matrix(4.16667,0,0,4.16667,7892.72,0)">
            <g transform="matrix(99.2582,0,0,99.2582,230.599,288.135)">
                <path d="M0.293,-0.479C0.152,-0.479 0.041,-0.374 0.041,-0.233C0.041,-0.092 0.152,0.015 0.293,0.015C0.433,0.015 0.544,-0.092 0.544,-0.233C0.544,-0.374 0.433,-0.479 0.293,-0.479ZM0.293,-0.069C0.202,-0.069 0.133,-0.142 0.133,-0.233C0.133,-0.323 0.202,-0.395 0.293,-0.395C0.383,-0.395 0.452,-0.323 0.452,-0.233C0.452,-0.142 0.383,-0.069 0.293,-0.069Z" style="fill:rgb(0,100,54);fill-rule:nonzero;"/>
            </g>
            <g transform="matrix(99.2582,0,0,99.2582,288.252,288.135)">
                <path d="M0.237,-0.467L0.237,-0.565C0.237,-0.636 0.277,-0.677 0.34,-0.677C0.359,-0.677 0.387,-0.673 0.412,-0.668L0.425,-0.744C0.39,-0.754 0.352,-0.758 0.323,-0.758C0.216,-0.758 0.145,-0.683 0.145,-0.565L0.145,-0.467L0.01,-0.467L0.01,-0.383L0.145,-0.383L0.145,-0.084L0.061,-0.084L0.061,-0L0.357,-0L0.357,-0.084L0.237,-0.084L0.237,-0.383L0.419,-0.383L0.419,-0.467L0.237,-0.467Z" style="fill:rgb(0,100,54);fill-rule:nonzero;"/>
            </g>
            <g transform="matrix(99.2582,0,0,99.2582,324.962,288.135)">
                <path d="M0.409,-0.082C0.385,-0.075 0.356,-0.07 0.331,-0.07C0.267,-0.07 0.234,-0.101 0.234,-0.174L0.234,-0.383L0.402,-0.383L0.402,-0.467L0.234,-0.467L0.234,-0.62L0.142,-0.62L0.142,-0.467L0.02,-0.467L0.02,-0.383L0.142,-0.383L0.142,-0.174C0.142,-0.053 0.205,0.015 0.314,0.015C0.35,0.015 0.376,0.011 0.423,-0.003L0.409,-0.082Z" style="fill:rgb(0,100,54);fill-rule:nonzero;"/>
            </g>
            <g transform="matrix(99.2582,0,0,99.2582,368.322,288.135)">
                <path d="M0.655,-0.68L0.037,-0.68L0.037,-0.467L0.123,-0.467L0.123,-0.592L0.299,-0.592L0.299,-0.084L0.178,-0.084L0.178,-0L0.515,-0L0.515,-0.084L0.394,-0.084L0.394,-0.592L0.569,-0.592L0.569,-0.467L0.655,-0.467L0.655,-0.68Z" style="fill:white;fill-rule:nonzero;"/>
            </g>
            <g transform="matrix(99.2582,0,0,99.2582,429.251,288.135)">
                <path d="M0.517,-0.238C0.517,-0.379 0.421,-0.479 0.285,-0.479C0.144,-0.479 0.041,-0.372 0.041,-0.233C0.041,-0.095 0.142,0.015 0.29,0.015C0.394,0.015 0.48,-0.041 0.507,-0.124L0.409,-0.124C0.389,-0.088 0.347,-0.066 0.293,-0.066C0.2,-0.066 0.146,-0.125 0.133,-0.198L0.513,-0.198L0.513,-0.199L0.515,-0.198C0.517,-0.211 0.517,-0.225 0.517,-0.238ZM0.287,-0.405C0.368,-0.405 0.42,-0.347 0.43,-0.27L0.133,-0.27C0.147,-0.344 0.202,-0.405 0.287,-0.405Z" style="fill:white;fill-rule:nonzero;"/>
            </g>
            <g transform="matrix(99.2582,0,0,99.2582,483.232,288.135)">
                <path d="M0.527,-0.383L0.611,-0.383L0.611,-0.467L0.435,-0.467L0.435,-0.426C0.395,-0.459 0.342,-0.479 0.279,-0.479C0.147,-0.479 0.041,-0.37 0.041,-0.233C0.041,-0.097 0.147,0.012 0.279,0.012C0.342,0.012 0.395,-0.008 0.435,-0.041L0.435,-0L0.611,-0L0.611,-0.084L0.527,-0.084L0.527,-0.383ZM0.292,-0.068C0.201,-0.068 0.133,-0.145 0.133,-0.233C0.133,-0.323 0.201,-0.399 0.292,-0.399C0.345,-0.399 0.393,-0.379 0.435,-0.334L0.435,-0.133C0.393,-0.088 0.345,-0.068 0.292,-0.068Z" style="fill:white;fill-rule:nonzero;"/>
            </g>
            <g transform="matrix(99.2582,0,0,99.2582,546.146,288.135)">
                <path d="M0.429,-0.165C0.414,-0.108 0.363,-0.072 0.297,-0.072C0.203,-0.072 0.133,-0.144 0.133,-0.233C0.133,-0.323 0.203,-0.395 0.296,-0.395C0.363,-0.395 0.416,-0.358 0.431,-0.301L0.521,-0.301L0.521,-0.467L0.435,-0.467L0.435,-0.424C0.4,-0.458 0.35,-0.478 0.29,-0.478C0.146,-0.478 0.041,-0.372 0.041,-0.233C0.041,-0.094 0.148,0.012 0.297,0.012C0.418,0.012 0.506,-0.059 0.523,-0.165L0.429,-0.165Z" style="fill:white;fill-rule:nonzero;"/>
            </g>
            <g transform="matrix(99.2582,0,0,99.2582,599.73,288.135)">
                <path d="M0.665,-0.084L0.58,-0.084L0.58,-0.264C0.58,-0.397 0.499,-0.482 0.378,-0.482C0.316,-0.482 0.262,-0.459 0.22,-0.42L0.22,-0.71L0.044,-0.71L0.044,-0.626L0.128,-0.626L0.128,-0.084L0.044,-0.084L0.044,-0L0.304,-0L0.304,-0.084L0.22,-0.084L0.22,-0.321C0.259,-0.371 0.31,-0.399 0.36,-0.399C0.439,-0.399 0.489,-0.348 0.489,-0.259L0.489,-0.084L0.404,-0.084L0.404,-0L0.665,-0L0.665,-0.084Z" style="fill:white;fill-rule:nonzero;"/>
            </g>
            <g transform="matrix(99.2582,0,0,99.2582,665.621,288.135)">
                <path d="M0.517,-0.238C0.517,-0.379 0.421,-0.479 0.285,-0.479C0.144,-0.479 0.041,-0.372 0.041,-0.233C0.041,-0.095 0.142,0.015 0.29,0.015C0.394,0.015 0.48,-0.041 0.507,-0.124L0.409,-0.124C0.389,-0.088 0.347,-0.066 0.293,-0.066C0.2,-0.066 0.146,-0.125 0.133,-0.198L0.513,-0.198L0.513,-0.199L0.515,-0.198C0.517,-0.211 0.517,-0.225 0.517,-0.238ZM0.287,-0.405C0.368,-0.405 0.42,-0.347 0.43,-0.27L0.133,-0.27C0.147,-0.344 0.202,-0.405 0.287,-0.405Z" style="fill:white;fill-rule:nonzero;"/>
            </g>
            <g transform="matrix(99.2582,0,0,99.2582,718.808,288.135)">
                <path d="M0.42,-0.474C0.334,-0.474 0.267,-0.446 0.22,-0.41L0.22,-0.467L0.044,-0.467L0.044,-0.383L0.128,-0.383L0.128,-0.084L0.044,-0.084L0.044,-0L0.348,-0L0.348,-0.084L0.22,-0.084L0.22,-0.337C0.266,-0.357 0.332,-0.379 0.42,-0.381L0.42,-0.474Z" style="fill:white;fill-rule:nonzero;"/>
            </g>
        </g>
        <g transform="matrix(4.16667,0,0,4.16667,7892.72,0)">
            <g transform="matrix(1,0,0,1,9.09495e-13,39.575)">
                <path d="M204.14,192.189L164.025,192.189L174.228,212.238L200.175,212.238C207.752,212.375 214.859,215.941 219.495,221.937C224.131,227.932 225.796,235.707 224.022,243.075C227.007,237.907 225.996,230.431 225.846,212.238C224.041,201.213 214.944,193.08 204.14,192.189Z" style="fill:white;fill-rule:nonzero;"/>
            </g>
        </g>
        <g transform="matrix(4.16667,0,0,4.16667,7892.72,0)">
            <g transform="matrix(1,0,0,1,9.09495e-13,99.882)">
                <path d="M200.175,152.671C200.175,169.224 186.632,182.768 170.078,182.768L102.936,182.768C106.136,188.311 113.93,191.201 132.304,201.811C169.052,223.027 157.905,223.027 194.655,201.811C213.028,191.202 220.822,188.311 224.022,182.768C225.796,175.4 224.131,167.625 219.495,161.63C214.859,155.634 207.752,152.068 200.175,151.931L200.175,152.671Z" style="fill:rgb(0,100,54);fill-rule:nonzero;"/>
            </g>
        </g>
        <g transform="matrix(4.16667,0,0,4.16667,7892.72,0)">
            <g transform="matrix(1,0,0,1,9.09495e-13,-22.013)">
                <path d="M103.625,253.821C105.43,264.845 114.527,272.979 125.331,273.869L165.446,273.869L155.243,253.821L129.296,253.821C121.719,253.684 114.612,250.116 109.976,244.121C105.34,238.126 103.675,230.352 105.449,222.984C102.464,228.153 103.475,235.628 103.625,253.821Z" style="fill:white;fill-rule:nonzero;"/>
            </g>
        </g>
        <g transform="matrix(4.16667,0,0,4.16667,7892.72,0)">
            <g transform="matrix(1,0,0,1,9.09495e-13,-82.319)">
                <path d="M134.817,264.248C116.442,274.856 108.649,277.747 105.449,283.29C103.675,290.658 105.34,298.432 109.976,304.427C114.612,310.422 121.719,313.99 129.296,314.127L129.296,313.387C129.296,296.834 142.839,283.29 159.393,283.29L226.535,283.29C223.335,277.747 215.542,274.856 197.167,264.248C178.792,253.639 172.392,248.335 165.992,248.335C159.592,248.335 153.192,253.639 134.817,264.248Z" style="fill:rgb(0,100,54);fill-rule:nonzero;"/>
            </g>
        </g>
    </g>
</svg>
